<svg xmlns="http://www.w3.org/2000/svg" viewBox="0 0 128 128" width="128" height="128">
  <!-- Erzeugt von scripts/build-brand-assets.sh. Nicht von Hand ändern. -->
  <!-- Grundfläche des App-Icons. Sie ist hell, weil die Marke dunkel ist:
       Bügel und Kopf sind beide tiefes Violett, also muss der Grund den
       Kontrast liefern. Eine dunkle Platte ließ den Kopf bei 1,23:1
       verschwinden — der Grund, warum die großen Stufen matschig wirkten. -->
  <g id="rp-plate">
    <defs>
      <linearGradient id="rp-plate-fill" x1="0" y1="0" x2="0.35" y2="1">
        <stop offset="0" stop-color="#5798BD"/>
        <stop offset="1" stop-color="#8570CB"/>
      </linearGradient>
    </defs>
    <rect x="8" y="8" width="112" height="112" rx="26" fill="url(#rp-plate-fill)"/>
  </g>
  <g id="rp-mark" transform="translate(-6.0702 -13.2598) scale(0.112602)">
  <!-- Stufe für 48 und 64 px sowie für Androids Vordergrundebene.
       Sie zeigt **nur den Kopf**. Gemessen: in der vollen Komposition
       nehmen Bügel und Muscheln zwei Drittel der Breite, der Kopf bleibt
       bei 48 px 19 px breit und jedes Auge 2 px — das ist Grieß. Ohne
       Kopfhörer trägt derselbe Kopf 36 px und die Augen lesen.

       Die Koordinaten sind absichtlich dieselben wie in `mark.svg`: die
       Zeichnung ist ein Ausschnitt, keine zweite Eule. Der leere Rand im
       viewBox stört nicht — jede Zielfläche richtet sich an der
       gezeichneten Fläche aus, nicht am Raster.

       Auch die Farbe ist vereinfacht: alle Verläufe liegen auf einem Wert.
       Das ist zugleich Bedingung für Android — VectorDrawable kennt keine
       Verlaufsverweise. -->

  <g id="rp-m-rp-g-tufts">
    <path d="M 261 392 C 363 404 457 442 530 496
             C 460 520 403 560 363 610 C 344 520 308 444 261 392 Z"
          fill="#2B155E"/>
    <path d="M 985 392 C 883 404 789 442 716 496
             C 786 520 843 560 883 610 C 902 520 938 444 985 392 Z"
          fill="#2B155E"/>
  </g>

  <path id="rp-m-rp-head" fill="#33195F"
        d="M 623 372 C 800 372 950 520 985 700
           C 1006 810 900 999 623 999 C 346 999 240 810 261 700
           C 296 520 446 372 623 372 Z"/>

  <path id="rp-m-rp-face" fill="#8A679C"
        d="M 623 777 L 316 596
           C 300 630 290 700 296 800
           C 304 900 450 952 623 952
           C 796 952 942 900 950 800
           C 956 700 946 630 930 596 Z"/>

  <g id="rp-m-rp-g-eyes">
    <path fill="#3E9FA4" d="M 441.5 670.1 A 74 70 0 1 0 548 733 Z"/>
    <path fill="#3E9FA4" d="M 698 733 A 74 70 0 1 0 804.5 670.1 Z"/>
    <circle cx="475" cy="728" r="37" fill="#160A43"/>
    <circle cx="771" cy="728" r="37" fill="#160A43"/>
  </g>

  <path id="rp-m-rp-beak" fill="#8E8CB2"
        d="M 623 760 C 660 760 690 790 690 828
           C 690 878 660 936 623 986
           C 586 936 556 878 556 828
           C 556 790 586 760 623 760 Z"/>
  </g>
</svg>
